<svg xmlns="http://www.w3.org/2000/svg" width="23.235" height="24.784" viewBox="0 0 23.235 24.784">
  <g id="download" transform="translate(-16)">
    <g id="Groupe_29" data-name="Groupe 29" transform="translate(21.421)">
      <g id="Groupe_28" data-name="Groupe 28">
        <path id="Tracé_230" data-name="Tracé 230" d="M140.321,11.3a.773.773,0,0,0-.7-.454h-3.1V.775A.775.775,0,0,0,135.743,0h-3.1a.775.775,0,0,0-.775.775V10.843h-3.1a.774.774,0,0,0-.582,1.284l5.422,6.2a.773.773,0,0,0,1.165,0l5.422-6.2A.772.772,0,0,0,140.321,11.3Z" transform="translate(-127.998 0)" fill="#131829"/>
      </g>
    </g>
    <g id="Groupe_31" data-name="Groupe 31" transform="translate(16 17.039)">
      <g id="Groupe_30" data-name="Groupe 30">
        <path id="Tracé_231" data-name="Tracé 231" d="M36.137,352v4.647H19.1V352H16v6.2a1.549,1.549,0,0,0,1.549,1.549H37.686a1.548,1.548,0,0,0,1.549-1.549V352Z" transform="translate(-16 -352)" fill="#131829"/>
      </g>
    </g>
  </g>
</svg>
