<svg xmlns="http://www.w3.org/2000/svg" width="20" height="16.291" viewBox="0 0 20 16.291">
  <path id="envelope-regular" d="M18.125,64H1.875A1.961,1.961,0,0,0,0,66.036V78.254a1.961,1.961,0,0,0,1.875,2.036h16.25A1.961,1.961,0,0,0,20,78.254V66.036A1.961,1.961,0,0,0,18.125,64Zm0,2.036v1.731c-.876.775-2.272,1.979-5.257,4.518-.658.562-1.961,1.912-2.868,1.9-.907.016-2.21-1.335-2.868-1.9-2.985-2.538-4.381-3.743-5.257-4.518V66.036ZM1.875,78.254V70.38c.9.774,2.164,1.861,4.1,3.506.854.73,2.349,2.341,4.026,2.331,1.669.01,3.145-1.578,4.026-2.331,1.935-1.645,3.2-2.732,4.1-3.506v7.874Z" transform="translate(0 -64)" fill="#c248e0"/>
</svg>
