<svg xmlns="http://www.w3.org/2000/svg" width="29.052" height="26.977" viewBox="0 0 29.052 26.977">
  <path id="gitlab-brands" d="M5.927,18.6a.569.569,0,0,0-1.072,0L1.649,28.521H9.139c-.006,0-3.211-9.918-3.211-9.918ZM.009,33.514a1.132,1.132,0,0,0,.4,1.248L14.478,45.2,1.643,28.521Zm9.123-4.993L14.483,45.2l5.35-16.681Zm19.824,4.993-1.634-4.993L14.483,45.2l14.065-10.44A1.135,1.135,0,0,0,28.957,33.514ZM24.112,18.6a.569.569,0,0,0-1.072,0l-3.211,9.918h7.489Z" transform="translate(0.044 -18.225)" fill="#131829"/>
</svg>
