<svg xmlns="http://www.w3.org/2000/svg" width="24.223" height="27.317" viewBox="0 0 24.223 27.317">
  <path id="github-square-brands" d="M91.151,189.9c0-.573.021-3.5.021-5.868a4.134,4.134,0,0,0-1.2-3.257c3.926-.435,8.064-.976,8.064-7.756a5.448,5.448,0,0,0-1.814-4.138,6.636,6.636,0,0,0-.18-4.775c-1.475-.456-4.849,1.9-4.849,1.9a16.692,16.692,0,0,0-8.828,0s-3.374-2.356-4.849-1.9a6.585,6.585,0,0,0-.18,4.775,5.329,5.329,0,0,0-1.655,4.138c0,6.748,3.958,7.321,7.884,7.756a3.846,3.846,0,0,0-1.125,2.366,3.723,3.723,0,0,1-5.125-1.475,3.7,3.7,0,0,0-2.706-1.814c-1.719-.021-.117,1.082-.117,1.082,1.146.531,1.952,2.568,1.952,2.568,1.029,3.151,5.952,2.09,5.952,2.09,0,1.475.021,3.873.021,4.308,0,1.466,1.987,1.465,4.236,1.465C89.193,191.365,91.151,191.005,91.151,189.9Zm-9.189-5.634c-.2.042-.393-.042-.414-.18-.021-.159.117-.3.318-.34.2-.021.393.064.414.2s-.106.276-.318.318Zm-1.008-.1c0,.138-.159.255-.371.255-.233.021-.393-.1-.393-.255,0-.138.159-.255.371-.255C80.764,183.894,80.955,184.011,80.955,184.17Zm-1.454-.117c-.042.138-.255.2-.435.138-.2-.042-.34-.2-.3-.34s.255-.2.435-.159c.212.064.35.223.3.361Zm-1.305-.573c-.1.117-.3.1-.456-.064-.159-.138-.2-.34-.1-.435.1-.117.3-.1.456.064C78.238,183.183,78.291,183.4,78.2,183.481Zm-.966-.966c-.1.064-.276,0-.393-.159s-.117-.34,0-.414c.117-.1.3-.021.393.138A.311.311,0,0,1,77.23,182.515Zm-.69-1.029c-.1.1-.255.042-.371-.064-.117-.138-.138-.3-.042-.371.1-.1.255-.042.371.064C76.615,181.252,76.636,181.412,76.541,181.486Zm-.711-.785a.2.2,0,0,1-.3.042c-.138-.064-.2-.18-.159-.276a.25.25,0,0,1,.3-.042C75.808,180.5,75.872,180.616,75.83,180.7Z" transform="translate(-73.814 -164.047)" fill="#131829"/>
</svg>
