<svg id="malt_picto_color" xmlns="http://www.w3.org/2000/svg" width="29.997" height="29.998" viewBox="0 0 29.997 29.998">
  <path id="Tracé_234" data-name="Tracé 234" d="M27.831,6.437c-2.264-2.264-4.683-.8-6.2.715l-7.15,7.15-7.15,7.15c-1.514,1.514-3.1,3.813-.715,6.2s4.683.8,6.2-.715l7.15-7.15,7.15-7.15C28.63,11.12,30.1,8.7,27.831,6.437Z" transform="translate(-2.16 -2.108)" fill="#131829" fill-rule="evenodd"/>
  <path id="Tracé_235" data-name="Tracé 235" d="M19.552,3.743l3.028,3.028,3.082-3.082c.21-.21.422-.4.636-.588A3.451,3.451,0,0,0,22.579,0a3.453,3.453,0,0,0-3.721,3.11C19.089,3.309,19.319,3.51,19.552,3.743Z" transform="translate(-7.544)" fill="#131829" fill-rule="evenodd"/>
  <g id="Groupe_32" data-name="Groupe 32" transform="translate(11.325 23.154)">
    <path id="Tracé_236" data-name="Tracé 236" d="M25.669,41.674l-3.08-3.08L19.563,41.62c-.23.23-.458.44-.686.637a3.554,3.554,0,0,0,3.711,3.18A3.558,3.558,0,0,0,26.3,42.244C26.09,42.062,25.878,41.883,25.669,41.674Z" transform="translate(-18.876 -38.594)" fill="#131829" fill-rule="evenodd"/>
  </g>
  <path id="Tracé_237" data-name="Tracé 237" d="M3.819,25.38l6.905-6.905H4.887C2.747,18.474,0,19.148,0,22.35a3.558,3.558,0,0,0,3.195,3.715C3.392,25.837,3.589,25.61,3.819,25.38Z" transform="translate(0 -7.391)" fill="#131829" fill-rule="evenodd"/>
  <path id="Tracé_238" data-name="Tracé 238" d="M39.795,18.733c-.185.215-.366.43-.578.641L32.262,26.33h5.755c2.141,0,4.887-.506,4.887-3.876A3.453,3.453,0,0,0,39.795,18.733Z" transform="translate(-12.906 -7.494)" fill="#131829" fill-rule="evenodd"/>
  <path id="Tracé_239" data-name="Tracé 239" d="M7.047,11.276H14.8l1.043-1.043L12.814,7.206C11.3,5.693,9,4.108,6.618,6.491a3.453,3.453,0,0,0-.433,4.829C6.467,11.3,6.748,11.276,7.047,11.276Z" transform="translate(-2.16 -2.109)" fill="#131829" fill-rule="evenodd"/>
  <path id="Tracé_240" data-name="Tracé 240" d="M36.039,34.56H28.365l-1.045,1.046L30.4,38.688c1.514,1.514,3.933,2.979,6.2.715a3.558,3.558,0,0,0,.368-4.886C36.665,34.538,36.365,34.56,36.039,34.56Z" transform="translate(-10.929 -13.809)" fill="#131829" fill-rule="evenodd"/>
</svg>
