<svg xmlns="http://www.w3.org/2000/svg" width="506.552" height="453.92" viewBox="0 0 506.552 453.92">
  <g id="perso" transform="translate(0 -250.413)">
    <path id="Tracé_200" data-name="Tracé 200" d="M349.992,671.334H315.308L229.837,638.2s-60.7-24.542-55.742,22.088S187.721,769.5,187.721,769.5s27.252-12.271,42.116-8.59,4.955-74.853,4.955-74.853,121.393,57.674,132.542,50.311,13.626-58.9,13.626-58.9Z" transform="translate(20.302 -110.081)" fill="#2f2e41"/>
    <path id="Tracé_201" data-name="Tracé 201" d="M349.992,671.334H315.308L229.837,638.2s-60.7-24.542-55.742,22.088S187.721,769.5,187.721,769.5s27.252-12.271,42.116-8.59,4.955-74.853,4.955-74.853,121.393,57.674,132.542,50.311,13.626-58.9,13.626-58.9Z" transform="translate(20.302 -110.081)" opacity="0.1"/>
    <path id="Tracé_202" data-name="Tracé 202" d="M450.738,558.82l-41.975,59.742-97.858,80.988s-90.426,20.861-78.038,35.586,87.948-14.725,87.948-14.725,112.722-80.988,116.438-87.124,44.593-63.809,44.593-63.809Z" transform="translate(-135.088 -105.167)" fill="#c7a896"/>
    <path id="Tracé_204" data-name="Tracé 204" d="M222.112,507.092,194.86,559.857s6.194,25.769,16.1,28.223,52.026-31.9,52.026-31.9Z" transform="translate(118.453 -101.681)" fill="#eaeaea"/>
    <path id="Tracé_205" data-name="Tracé 205" d="M222.112,507.092,194.86,559.857s6.194,25.769,16.1,28.223,52.026-31.9,52.026-31.9Z" transform="translate(118.453 -101.681)" opacity="0.1"/>
    <path id="Tracé_206" data-name="Tracé 206" d="M559.581,644.787l-8.05,32.895a2.036,2.036,0,0,0,.04,1.11l36.516,113.043a2.078,2.078,0,0,0,4.036-.394l5.052-44.037a2.036,2.036,0,0,0-.089-.869l-33.518-101.9a2.079,2.079,0,0,0-3.988.152Z" transform="translate(-551.472 -110.854)" fill="#2f2e41"/>
    <path id="Tracé_207" data-name="Tracé 207" d="M499.528,575.493,492.1,603.717,524.3,706.792l7.432-31.9Z" transform="translate(-488.458 -38.782)" fill="#f2f2f2"/>
    <path id="Tracé_208" data-name="Tracé 208" d="M550.717,808.271c-1.239,3.681-128.825-1.227-130.064-2.454a26.571,26.571,0,0,1-2.725-4.908c-1.164-2.454-2.23-4.908-2.23-4.908l4.955-39.733L547,751.824s3.159,33.672,3.8,49.084C550.965,804.8,550.965,807.535,550.717,808.271Z" transform="translate(-377.377 -118.173)" fill="#2f2e41"/>
    <path id="Tracé_209" data-name="Tracé 209" d="M420.89,689.965l-2.477,34.358h55.741V689.965Z" transform="translate(-361.511 -46.496)" opacity="0.1"/>
    <path id="Tracé_210" data-name="Tracé 210" d="M364.8,701.8l-.332-.065,1.571,14.791h30.967V701.8Z" transform="translate(-233.576 -47.29)" opacity="0.1"/>
    <path id="Tracé_211" data-name="Tracé 211" d="M548.487,811.818c-1.239,3.681-128.825-1.227-130.064-2.454a26.571,26.571,0,0,1-2.725-4.908H548.574C548.735,808.345,548.735,811.081,548.487,811.818Z" transform="translate(-375.147 -121.72)" opacity="0.1"/>
    <ellipse id="Ellipse_8" data-name="Ellipse 8" cx="55.742" cy="55.219" rx="55.742" ry="55.219" transform="translate(266.243 277.794)" fill="#dbbba7"/>
    <path id="Tracé_212" data-name="Tracé 212" d="M163.94,478.656s18.581,31.9,22.3,49.084,55.742-34.359,55.742-34.359l6.813-17.793s-48.929-22.7-45.213-41.108S163.94,478.656,163.94,478.656Z" transform="translate(161.761 -96.559)" fill="#dbbba7"/>
    <path id="Tracé_213" data-name="Tracé 213" d="M444.657,584.722,393.87,650.986,272.477,740.563s-87.948,18.406-68.129,31.9,76.8-12.271,76.8-12.271,122.632-65.036,148.645-92.032,74.322-72.4,74.322-72.4Z" transform="translate(-128.866 -106.912)" fill="#dbbba7"/>
    <path id="Tracé_214" data-name="Tracé 214" d="M252.9,694.694l-14.865,23.315L149.32,690.361c-19.465-6.066-40.809-3.834-58.074,6.941-15.484,9.663-25.393,25-3.1,47.7,44.593,45.4,74.322,20.861,74.322,20.861s149.883,69.944,174.658,35.586,26.013-51.538,26.013-51.538S267.762,691.013,252.9,694.694Z" transform="translate(131.023 -113.808)" fill="#2f2e41"/>
    <path id="Tracé_215" data-name="Tracé 215" d="M267.044,781.289s-39.639,25.769,7.432,38.04,81.755-4.908,81.755-4.908,40.877,0,40.877-20.861-13.626-23.315-13.626-23.315l-42.116,6.135S290.579,762.883,267.044,781.289Z" transform="translate(-68.929 -119.414)" fill="#eaeaea"/>
    <path id="Tracé_216" data-name="Tracé 216" d="M203.39,409.734c-3.794,1.675-7.556,3.659-11.681,4.145s-8.822-.94-10.774-4.573a14.237,14.237,0,0,1-1.224-6.492c-.149-6.738.343-14.023,4.653-19.237,2.743-3.319,6.748-5.411,9.587-8.649a40.8,40.8,0,0,0,4.846-7.845c5.522-10.275,13.7-20.15,25.063-23.112,4.745-1.237,14.793-3.014,19.7-2.945h16.708c4.631.065,16.173,2.377,20.606,3.7,9.211,2.759,15.918,10.432,22.06,17.77,4.6,5.49,9.2,11.037,12.652,17.3a60.237,60.237,0,0,1,7.262,29.738,27.579,27.579,0,0,1-1.029,7.869A43.471,43.471,0,0,1,318.7,424.2c-5.367,10.442-8.553,23.485-2.509,33.558-10.5-4.248-20.887-9.819-27.812-18.715-3.1-3.98-5.528-8.639-9.657-11.559s-10.857-3.174-13.506,1.112a11.9,11.9,0,0,0-1.366,5.617c-.193,3.217-.188,6.559-1.565,9.479s-4.657,5.276-7.789,4.4c-5.393-1.5-4.877-9.7-9.031-13.43-3.155-2.829-8.022-2.288-12.075-3.572-4.722-1.5-8.265-5.549-10.284-10.034-1.535-3.41-1.512-12.332-4.416-14.178C215.047,404.562,206.766,408.243,203.39,409.734Z" transform="translate(72.867 -90.611)" fill="#2f2e41"/>
    <path id="Tracé_217" data-name="Tracé 217" d="M140.781,472.527a14.836,14.836,0,0,0-7.652.019c-7.952,2.115-25.777,7.713-29.6,16.232C98.576,499.821,81.234,517,81.234,517S57.7,540.316,62.653,556.268s23.535,34.359,23.535,34.359-4.955,76.08,19.819,95.713,34.684,6.135,34.684,24.542,76.8,76.08,91.664,40.494c0,0-7.432-66.263-4.955-89.578C229.843,638.819,226.269,495.453,140.781,472.527Z" transform="translate(274.196 -99.318)" fill="#eaeaea"/>
    <path id="Tracé_218" data-name="Tracé 218" d="M203.6,505.544s-75.561,55.219-61.935,78.534c0,0,45.832,22.088,55.742,20.861s48.31-44.175,58.219-47.857S270.486,487.137,203.6,505.544Z" transform="translate(171.653 -101.359)" fill="#eaeaea"/>
  </g>
</svg>
